<?xml version="1.0" standalone="no"?><!-- Generator: Gravit.io --><svg xmlns="http://www.w3.org/2000/svg" xmlns:xlink="http://www.w3.org/1999/xlink" style="isolation:isolate" viewBox="1136 753.916 89 92.168" width="89" height="92.168"><path d=" M 1149.692 753.916 L 1149.692 761.006 L 1146.269 761.006 C 1140.628 761.006 1136 765.798 1136 771.641 L 1136 835.449 C 1136 841.291 1140.628 846.084 1146.269 846.084 L 1214.731 846.084 C 1220.372 846.084 1225 841.291 1225 835.449 L 1225 771.641 C 1225 765.798 1220.372 761.006 1214.731 761.006 L 1211.308 761.006 L 1211.308 753.916 L 1204.462 753.916 L 1204.462 761.006 L 1156.538 761.006 L 1156.538 753.916 L 1149.692 753.916 Z  M 1146.269 768.096 L 1149.692 768.096 L 1149.692 775.185 L 1156.538 775.185 L 1156.538 768.096 L 1204.462 768.096 L 1204.462 775.185 L 1211.308 775.185 L 1211.308 768.096 L 1214.731 768.096 C 1216.655 768.096 1218.154 769.648 1218.154 771.641 L 1218.154 782.275 L 1142.846 782.275 L 1142.846 771.641 C 1142.846 769.648 1144.345 768.096 1146.269 768.096 Z  M 1142.846 789.365 L 1218.154 789.365 L 1218.154 835.449 C 1218.154 837.442 1216.655 838.994 1214.731 838.994 L 1146.269 838.994 C 1145.358 839.006 1144.481 838.636 1143.836 837.969 C 1143.192 837.301 1142.835 836.393 1142.846 835.449 L 1142.846 789.365 Z  M 1163.385 796.455 L 1163.385 803.545 L 1170.231 803.545 L 1170.231 796.455 L 1163.385 796.455 Z  M 1177.077 796.455 L 1177.077 803.545 L 1183.923 803.545 L 1183.923 796.455 L 1177.077 796.455 Z  M 1190.769 796.455 L 1190.769 803.545 L 1197.615 803.545 L 1197.615 796.455 L 1190.769 796.455 Z  M 1204.462 796.455 L 1204.462 803.545 L 1211.308 803.545 L 1211.308 796.455 L 1204.462 796.455 Z  M 1149.692 810.635 L 1149.692 817.725 L 1156.538 817.725 L 1156.538 810.635 L 1149.692 810.635 Z  M 1163.385 810.635 L 1163.385 817.725 L 1170.231 817.725 L 1170.231 810.635 L 1163.385 810.635 Z  M 1177.077 810.635 L 1177.077 817.725 L 1183.923 817.725 L 1183.923 810.635 L 1177.077 810.635 Z  M 1190.769 810.635 L 1190.769 817.725 L 1197.615 817.725 L 1197.615 810.635 L 1190.769 810.635 Z  M 1204.462 810.635 L 1204.462 817.725 L 1211.308 817.725 L 1211.308 810.635 L 1204.462 810.635 Z  M 1149.692 824.815 L 1149.692 831.904 L 1156.538 831.904 L 1156.538 824.815 L 1149.692 824.815 Z  M 1163.385 824.815 L 1163.385 831.904 L 1170.231 831.904 L 1170.231 824.815 L 1163.385 824.815 Z  M 1177.077 824.815 L 1177.077 831.904 L 1183.923 831.904 L 1183.923 824.815 L 1177.077 824.815 Z " fill="rgb(230,178,35)"/></svg>